<svg width="88.009064" height="88.009430" viewBox="0 0 88.0091 88.0094" fill="none" xmlns="http://www.w3.org/2000/svg" xmlns:xlink="http://www.w3.org/1999/xlink">
	<desc>
			Created with Pixso.
	</desc>
	<defs/>
	<path id="Vector" d="M28.95 2.66C6.12 10.97 -5.65 36.21 2.66 59.05C10.97 81.88 36.21 93.65 59.05 85.34C81.88 77.03 93.65 51.78 85.34 28.95C77.03 6.12 51.78 -5.65 28.95 2.66ZM31.34 9.23C50.55 2.24 71.78 12.14 78.77 31.34C85.76 50.55 75.86 71.78 56.66 78.77C37.45 85.76 16.22 75.86 9.23 56.66C2.24 37.45 12.14 16.22 31.34 9.23ZM21.98 51.99C26.35 63.98 39.61 70.17 51.61 65.8C63.49 61.48 69.67 48.43 65.56 36.53L65.43 36.17L72 33.78C77.68 49.41 69.63 66.68 54 72.37C38.53 78 21.44 70.16 15.59 54.84L15.41 54.38L21.98 51.99ZM35.66 50.46C38.5 48.8 39.4 42.58 37.67 36.56C35.94 30.54 32.24 27 29.4 28.65C26.56 30.31 25.66 36.53 27.39 42.55C29.12 48.57 32.82 52.11 35.66 50.46ZM53.06 44.13C55.89 42.47 56.79 36.25 55.06 30.23C53.33 24.21 49.63 20.67 46.79 22.32C43.96 23.97 43.06 30.2 44.79 36.22C46.52 42.24 50.22 45.78 53.06 44.13Z" fill="#000000" fill-opacity="1.000000" fill-rule="evenodd"/>
</svg>
